# xmcd
#
# Track frame offsets: 
#        150
#        6746
#        11222
#        18037
#        32455
#        40511
#        48660
#        57881
#        68149
#        77404
#        83548
#        97455
#        110118
#
# Disc length: 1607 seconds
#
# Revision: 0
# Processed by: cddbd v1.5.2PL0 Copyright (c) Steve Scherf et al.
# Submitted via: ExactAudioCopy v0.99pb5
#
DISCID=9f06450d
DTITLE=Roger Miller - King Of The Road: The Genius Of Roger Miller (Di
DTITLE=sc 4)
DYEAR=1995
DGENRE=Country
TTITLE0=Whistle Stop
TTITLE1=Ooh-De-Lally
TTITLE2=Not in Nottignham
TTITLE3=Dark Side of the Moon
TTITLE4=I Ain't Gonna Work no More
TTITLE5=Stephen Foster
TTITLE6=It's a Miracle that you're Mine
TTITLE7=Got 2 Again
TTITLE8=I Ain't Comin' home Tonight
TTITLE9=Hand for the Hog
TTITLE10=Leavin's Not the Only Way to go
TTITLE11=You Ought to Be here with me
TTITLE12=Muddy Water
EXTD=
EXTT0=
EXTT1=
EXTT2=
EXTT3=
EXTT4=
EXTT5=
EXTT6=
EXTT7=
EXTT8=
EXTT9=
EXTT10=
EXTT11=
EXTT12=
PLAYORDER=
